<svg width="160" height="40" viewBox="0 0 160 40" fill="none" xmlns="http://www.w3.org/2000/svg">
<g id="Logos / GitLab_logo">
<path id="Vector" d="M68.5372 15.9509H73.5235C72.6916 10.6493 68.1002 6.95435 62.1257 6.95435C55.056 6.95435 49.752 12.1517 49.752 20.8602C49.752 29.4073 54.8177 34.7114 62.2697 34.7114C68.9594 34.7114 73.747 30.4105 73.747 23.4452V20.1996H62.7862V24.0238H69.0215C68.942 27.8752 66.3694 30.3161 62.3169 30.3161C57.7925 30.3161 54.6935 26.9266 54.6935 20.8055C54.6935 14.7242 57.8446 11.3471 62.2126 11.3471C65.4506 11.3471 67.6656 13.0878 68.5372 15.9509Z" fill="#171321"/>
<path id="Vector_2" d="M77.0422 34.339H81.8174V14.0787H77.0422V34.339ZM79.4509 10.8704C80.9681 10.8704 82.2073 9.70831 82.2073 8.28544C82.2073 6.86258 80.9657 5.68555 79.4509 5.68555C77.9362 5.68555 76.6797 6.84768 76.6797 8.28544C76.6797 9.72321 77.9138 10.8704 79.4509 10.8704Z" fill="#171321"/>
<path id="Vector_3" d="M96.1149 14.0787H92.1145V9.22412H87.3443V14.0787H84.4688V17.7762H87.3443V29.0424C87.317 32.8541 90.0882 34.7264 93.6739 34.6221C94.6296 34.6055 95.5772 34.4448 96.4849 34.1454L95.6803 30.4206C95.2235 30.5386 94.7541 30.6011 94.2823 30.6068C93.0829 30.6068 92.1194 30.1847 92.1194 28.2577V17.7762H96.1149V14.0787Z" fill="#171321"/>
<path id="Vector_4" d="M99.8125 34.3388H116.606V30.2366H104.704V7.32422H99.8125V34.3388Z" fill="#171321"/>
<path id="Vector_5" d="M126.247 34.7488C129.426 34.7488 131.326 33.2588 132.195 31.5554H132.344V34.339H136.935V20.7784C136.935 15.4246 132.57 13.8254 128.703 13.8254C124.442 13.8254 121.172 15.7251 120.117 19.4176L124.586 20.0508C125.063 18.6652 126.406 17.4782 128.743 17.4782C130.958 17.4782 132.172 18.613 132.172 20.6045V20.684C132.172 22.0547 130.735 22.1218 127.159 22.5042C123.228 22.9263 119.461 24.1009 119.461 28.665C119.466 32.638 122.381 34.7488 126.247 34.7488ZM127.817 31.24C125.83 31.24 124.4 30.3287 124.4 28.5756C124.4 26.7405 125.997 25.9757 128.125 25.6727C129.379 25.5014 131.884 25.1761 132.505 24.6794V27.0658C132.513 29.328 130.692 31.24 127.817 31.24Z" fill="#171321"/>
<path id="Vector_6" d="M140.465 34.3388H145.161V31.1479H145.439C146.184 32.6378 147.76 34.6964 151.242 34.6964C156.017 34.6964 159.593 30.9095 159.593 24.2347C159.593 17.4804 155.913 13.8053 151.229 13.8053C147.654 13.8053 146.164 15.9533 145.439 17.4184H145.24V7.32422H140.465V34.3388ZM145.148 24.2099C145.148 20.279 146.837 17.7312 149.911 17.7312C153.089 17.7312 154.726 20.4354 154.726 24.2099C154.726 27.9843 153.062 30.7779 149.911 30.7779C146.862 30.7779 145.148 28.1408 145.148 24.2099Z" fill="#171321"/>
<path id="Vector_7" d="M39.1314 16.0056L39.0768 15.864L33.6585 1.72975C33.5501 1.45154 33.3551 1.21559 33.1023 1.05681C32.8497 0.895192 32.5523 0.817817 32.253 0.835806C31.9534 0.850345 31.6662 0.95967 31.4328 1.14801C31.1994 1.33635 31.0318 1.59397 30.9543 1.88371L27.304 13.0705H12.5042L8.83907 1.88371C8.76073 1.59571 8.59291 1.34006 8.35981 1.15365C8.12518 0.967771 7.83861 0.859333 7.53969 0.84332C7.24078 0.827307 6.94427 0.904508 6.69111 1.06426C6.43897 1.22384 6.24415 1.45953 6.13488 1.7372L0.719054 15.864L0.664423 16.0056C-0.115361 18.0433 -0.211506 20.2793 0.390483 22.3764C0.992473 24.4735 2.25996 26.318 4.00182 27.6318L4.0192 27.6443L4.06887 27.6815L12.3205 33.8597L16.4028 36.9488L18.886 38.826C19.1771 39.047 19.5325 39.1666 19.8979 39.1666C20.2634 39.1666 20.6187 39.047 20.9098 38.826L23.393 36.9488L27.4754 33.8597L35.7742 27.6517L35.7965 27.6368C37.5387 26.3221 38.8061 24.4765 39.4077 22.3785C40.0092 20.2805 39.9123 18.0437 39.1314 16.0056Z" fill="#E24329"/>
<path id="Vector_8" d="M39.1312 16.0056L39.0766 15.864C36.4372 16.4059 33.9502 17.5243 31.7934 19.1393L19.8965 28.1334L27.4752 33.8597L35.774 27.6517L35.7963 27.6368C37.5385 26.3221 38.8059 24.4765 39.4075 22.3785C40.009 20.2804 39.9121 18.0437 39.1312 16.0056Z" fill="#FC6D26"/>
<path id="Vector_9" d="M12.3203 33.8595L16.4027 36.9486L18.8859 38.8259C19.1769 39.0468 19.5323 39.1664 19.8977 39.1664C20.2632 39.1664 20.6186 39.0468 20.9096 38.8259L23.3928 36.9486L27.4752 33.8595L19.8965 28.1333L12.3203 33.8595Z" fill="#FCA326"/>
<path id="Vector_10" d="M7.99975 19.1393C5.84413 17.5239 3.35782 16.4054 0.719054 15.864L0.664423 16.0056C-0.115361 18.0432 -0.211506 20.2792 0.390483 22.3763C0.992473 24.4734 2.25996 26.318 4.00182 27.6318L4.0192 27.6442L4.06887 27.6815L12.3205 33.8597L19.8967 28.1334L7.99975 19.1393Z" fill="#FC6D26"/>
</g>
</svg>
